inDegrees=no
num_controls=7
num_derivatives=13
num_iterations=112
num_multipliers=7
num_parameters=0
num_slacks=7
num_states=26
objective=0.469881
objective_accelerations=0.063296
objective_balance=0.001975
objective_effort=0.020295
objective_height=0.374701
objective_ligament=0.009614
solver_duration=1481.403578
status=Solve_Succeeded
success=true
DataType=double
version=3
OpenSimVersion=4.5
endheader
time	/jointset/ground_pelvis/pelvis_tilt/value	/jointset/ground_pelvis/pelvis_tx/value	/jointset/ground_pelvis/pelvis_ty/value	/jointset/hip_l/hip_flexion_l/value	/jointset/hip_l/hip_adduction_l/value	/jointset/hip_l/hip_rotation_l/value	/jointset/back/lumbar_extension/value	/jointset/patellofemoral_l/patellar_flexion_l/value	/jointset/knee_l/knee_flexion_l/value	/jointset/knee_l/knee_adduction_l/value	/jointset/knee_l/knee_rotation_l/value	/jointset/ankle_l/ankle_angle_l/value	/jointset/subtalar_l/subtalar_angle_l/value	/jointset/ground_pelvis/pelvis_tilt/speed	/jointset/ground_pelvis/pelvis_tx/speed	/jointset/ground_pelvis/pelvis_ty/speed	/jointset/hip_l/hip_flexion_l/speed	/jointset/hip_l/hip_adduction_l/speed	/jointset/hip_l/hip_rotation_l/speed	/jointset/back/lumbar_extension/speed	/jointset/patellofemoral_l/patellar_flexion_l/speed	/jointset/knee_l/knee_flexion_l/speed	/jointset/knee_l/knee_adduction_l/speed	/jointset/knee_l/knee_rotation_l/speed	/jointset/ankle_l/ankle_angle_l/speed	/jointset/subtalar_l/subtalar_angle_l/speed	/forceset/tau_hip_flexion_l	/forceset/tau_hip_adduction_l	/forceset/tau_hip_rotation_l	/forceset/tau_knee_flexion_l	/forceset/tau_ankle_angle_l	/forceset/tau_subtalar_angle_l	/forceset/tau_lumbar_extension	lambda_cid13_p0	lambda_cid13_p1	lambda_cid13_p2	lambda_cid13_p3	lambda_cid13_p4	lambda_cid13_p5	lambda_cid14_p0	/jointset/ground_pelvis/pelvis_tilt/accel	/jointset/ground_pelvis/pelvis_tx/accel	/jointset/ground_pelvis/pelvis_ty/accel	/jointset/hip_l/hip_flexion_l/accel	/jointset/hip_l/hip_adduction_l/accel	/jointset/hip_l/hip_rotation_l/accel	/jointset/back/lumbar_extension/accel	/jointset/patellofemoral_l/patellar_flexion_l/accel	/jointset/knee_l/knee_flexion_l/accel	/jointset/knee_l/knee_adduction_l/accel	/jointset/knee_l/knee_rotation_l/accel	/jointset/ankle_l/ankle_angle_l/accel	/jointset/subtalar_l/subtalar_angle_l/accel	gamma_cid13_p0	gamma_cid13_p1	gamma_cid13_p2	gamma_cid13_p3	gamma_cid13_p4	gamma_cid13_p5	gamma_cid14_p0
1.5	-0.564885738753104	-0.0380987091978917	0.7911874634313765	1.205409872935273	-0.3496195640389695	-0.1173951653622686	-0.341111270122967	0.5619853886468172	0.5619853886468207	-0.06430986591985763	-0.1745135772025834	0.01571463130200211	0.07712798918479527	1.094877833871936	0.4963141019477242	0.4680001052332165	-2.821732091813014	-0.006718246036862897	-0.5163540071874247	0.6011255119294203	-1.529495678226456	-1.529495678226457	-0.2198993936181089	0.001509924158202674	0.08587294675341889	0.02458982020267033	-0.2062176883392137	0.01837027406442117	0.008724255234664722	-0.05884104044390502	0.02662364909135071	0.008608793961187643	0.1672156190991405	-15.34029275755663	-3.822367936863558	3.491863820928811	-6.248929278645341	-430.3264818385509	-59.47838465988407	-20.35693462745666	0.80120584897539	0.8435442812747938	-0.5996842020371767	-1.731569390126119	0.2321527970700321	-0.320481027546897	1.838985750436375	-0.5628548879112477	-0.5628548879112457	-0.328930278599335	0.1225532690524163	0.3086318758493302	0.3341926926671654	5.44424782637537e-08	1.325231567692076e-06	-3.692589595691175e-07	2.52338505461279e-07	3.580389196490839e-07	-1.522450252117659e-07	2.850131961356622e-07
1.51	-0.5538974968060916	-0.03309396404593982	0.7958365477268849	1.177108105175332	-0.3496766361911366	-0.122575159396396	-0.3350101736604867	0.5466639291593993	0.5466639291593794	-0.06652778388643361	-0.174494180025078	0.01658836251496253	0.07738894628060317	1.102593405114383	0.5045620318132633	0.4617145041801742	-2.838225357289395	-0.004682899103497875	-0.5195803257841286	0.6190047410072739	-1.534596479987698	-1.534596479987696	-0.2236546581780439	0.002399783990082085	0.08887003583500033	0.02761447606945155	-0.1993077191231604	0.01775923206214546	0.009082073111444215	-0.05728741149466504	0.02355395367111578	0.00754738616857087	0.1621012463443651	-16.18831924659989	-3.406732131489014	3.646985267219354	-5.474685752850106	-426.4861285100756	-59.0995951561371	-20.85612143160835	0.730198018731453	0.8045266209865722	-0.6582382330753611	-1.548743345563679	0.1910922327630433	-0.3137691072601639	1.74903555254483	-0.4537985992792108	-0.4537985992787593	-0.3941985702807849	0.07653358626252402	0.2947941096356968	0.2884355649839263	8.807247540300284e-08	1.264224110052679e-06	-6.635950171719458e-07	2.302563297456621e-07	4.427476678155116e-07	-1.314484690522793e-07	3.169149801075984e-07
1.52	-0.542837406095284	-0.02800891773897391	0.8004197279766355	1.148653297116794	-0.3497129815557122	-0.127785428982791	-0.3287329560940109	0.5312974404985348	0.5312974404985357	-0.06878232930367412	-0.1744650180000682	0.01749197395580367	0.07768051664133892	1.109247586630914	0.5123743329505306	0.4548192960816335	-2.852340151532559	-0.002572888518404453	-0.5224091176419562	0.6363497327285264	-1.53850151291088	-1.538501512910875	-0.2272248837615866	0.003462893662235866	0.09184899232950811	0.03071247318824651	-0.1923977499070975	0.01714819005988979	0.009439890988465901	-0.05573378254542746	0.02048425825088676	0.006485978375973421	0.1569868735895914	-17.03997483937887	-2.991334947648901	3.803143822001738	-4.692452375039259	-422.7010117439789	-58.78349286152397	-21.33347621275672	0.5889279037922657	0.7564185356204516	-0.7216056111368545	-1.255875143482904	0.2470855274156831	-0.2409756797716869	1.732138279116169	-0.3237011202992865	-0.3237011202992861	-0.2919224833208708	0.1572032371072211	0.3050053584346287	0.3488609430699062	1.042102472400029e-07	1.294845709951373e-06	-8.001506848266629e-07	2.236528862451111e-07	5.027736608885048e-07	-1.051772450351248e-07	3.384933492106724e-07
1.53	-0.5317160903722135	-0.02284797467295467	0.8049309971083866	1.120069132749578	-0.349727950489419	-0.1330223131209373	-0.3222852417674365	0.5158977773764444	0.5158977773764187	-0.0710717191915919	-0.1744246504232645	0.01842522697461046	0.07800332049770412	1.114830164954506	0.5197356625312953	0.4473387341182364	-2.864082371597509	-0.000414671257885024	-0.5248837624621246	0.6530842107247203	-1.541223049087316	-1.54122304908732	-0.2306341623235234	0.004650872520982756	0.09480073600665259	0.03385455364809888	-0.1853781931706193	0.01631369872622365	0.009765290286720183	-0.05451878469460204	0.01795479650662361	0.005212572338708654	0.151768153338104	-17.73801029595067	-2.497279931405547	3.931358562185741	-4.018560299057207	-419.0646084640265	-58.37757955038028	-21.78678104710347	0.5151490658615346	0.7142452640556739	-0.7755399775868359	-1.071798060109969	0.200945621502586	-0.2378377197967649	1.627764280614426	-0.215241459504227	-0.2152414595055361	-0.3623486373191297	0.105425573192904	0.2901710405708146	0.2976737171182702	1.017625296933634e-07	1.422823183484288e-06	-7.690646881615137e-07	2.334955957230673e-07	5.365742266747242e-07	-7.308918641919797e-08	3.491030900155804e-07
